<svg width="354" height="282" viewBox="0 0 354 282" fill="none" xmlns="http://www.w3.org/2000/svg">
<path d="M177 279.451C274.754 279.451 354 274.906 354 269.299C354 263.693 274.754 259.147 177 259.147C79.2456 259.147 0 263.693 0 269.299C0 274.906 79.2456 279.451 177 279.451Z" fill="#F5F5F5"/>
<path d="M306.582 7.2526V169.124C306.582 170.019 306.405 170.905 306.063 171.732C305.72 172.559 305.217 173.311 304.584 173.944C303.951 174.577 303.199 175.079 302.371 175.422C301.544 175.764 300.657 175.941 299.762 175.941H70.488C68.6783 175.941 66.9426 175.223 65.662 173.945C64.3815 172.666 63.6608 170.932 63.6582 169.124V7.2526C63.6582 5.44201 64.3778 3.70559 65.6586 2.42531C66.9395 1.14503 68.6767 0.425781 70.488 0.425781H299.762C301.571 0.428343 303.306 1.14872 304.585 2.42872C305.863 3.70872 306.582 5.44369 306.582 7.2526Z" fill="#FFC179"/>
<path opacity="0.8" d="M306.582 7.2526V169.124C306.582 170.019 306.405 170.905 306.063 171.732C305.72 172.559 305.217 173.311 304.584 173.944C303.951 174.577 303.199 175.079 302.371 175.422C301.544 175.764 300.657 175.941 299.762 175.941H70.488C68.6783 175.941 66.9426 175.223 65.662 173.945C64.3815 172.666 63.6608 170.932 63.6582 169.124V7.2526C63.6582 5.44201 64.3778 3.70559 65.6586 2.42531C66.9395 1.14503 68.6767 0.425781 70.488 0.425781H299.762C301.571 0.428343 303.306 1.14872 304.585 2.42872C305.863 3.70872 306.582 5.44369 306.582 7.2526Z" fill="white"/>
<path opacity="0.1" d="M306.582 7.25259V19.8232H63.6777V7.25259C63.6777 5.44201 64.3973 3.70559 65.6781 2.42531C66.959 1.14503 68.6962 0.425781 70.5076 0.425781H299.781C301.587 0.433454 303.317 1.15609 304.592 2.43553C305.866 3.71498 306.582 5.44703 306.582 7.25259Z" fill="#3C4043"/>
<path opacity="0.4" d="M298.524 10.8121C298.526 11.5244 298.316 12.2211 297.921 12.8142C297.527 13.4072 296.965 13.8698 296.307 14.1432C295.649 14.4167 294.924 14.4887 294.225 14.3502C293.526 14.2117 292.884 13.8689 292.38 13.3653C291.876 12.8616 291.533 12.2198 291.395 11.5211C291.256 10.8225 291.328 10.0984 291.602 9.44072C291.876 8.78304 292.338 8.22135 292.932 7.82683C293.525 7.4323 294.222 7.22271 294.935 7.22462C295.887 7.22462 296.8 7.60259 297.473 8.27537C298.146 8.94815 298.524 9.86064 298.524 10.8121Z" fill="#FFC179"/>
<path opacity="0.4" d="M285.465 10.8121C285.467 11.5244 285.258 12.2211 284.863 12.8142C284.468 13.4072 283.906 13.8698 283.248 14.1432C282.59 14.4167 281.866 14.4887 281.167 14.3502C280.468 14.2117 279.826 13.8689 279.322 13.3653C278.818 12.8616 278.475 12.2198 278.336 11.5211C278.198 10.8225 278.27 10.0984 278.543 9.44072C278.817 8.78304 279.28 8.22135 279.873 7.82683C280.466 7.4323 281.164 7.22271 281.876 7.22462C282.828 7.22462 283.741 7.60259 284.414 8.27537C285.087 8.94815 285.465 9.86064 285.465 10.8121Z" fill="#FFC179"/>
<path opacity="0.4" d="M272.405 10.8121C272.407 11.5244 272.197 12.2211 271.802 12.8142C271.408 13.4072 270.846 13.8698 270.188 14.1432C269.53 14.4167 268.805 14.4887 268.106 14.3502C267.407 14.2117 266.765 13.8689 266.261 13.3653C265.757 12.8616 265.414 12.2198 265.276 11.5211C265.137 10.8225 265.209 10.0984 265.483 9.44072C265.756 8.78304 266.219 8.22135 266.812 7.82683C267.406 7.4323 268.103 7.22271 268.816 7.22462C269.767 7.22462 270.68 7.60259 271.354 8.27537C272.027 8.94815 272.405 9.86064 272.405 10.8121Z" fill="#FFC179"/>
<path opacity="0.4" d="M302.132 28.1318H68.041V41.389H302.132V28.1318Z" fill="white"/>
<path opacity="0.4" d="M302.131 45.5439H68.127V160.285H302.131V45.5439Z" fill="white"/>
<path d="M257.216 121.831H200.578V168.659H257.216V121.831Z" fill="#FF981F"/>
<path opacity="0.6" d="M200.578 121.831V168.659H257.216V121.831H200.578ZM255.375 166.807H202.42V123.674H255.375V166.807Z" fill="white"/>
<path d="M300.699 27.3359H224.996V89.9289H300.699V27.3359Z" fill="#FF981F"/>
<path opacity="0.6" d="M224.996 27.3359V89.9289H300.672V27.3359H224.996ZM298.237 87.4657H227.467V29.8083H298.237V87.4657Z" fill="white"/>
<path d="M75.3973 53.1797L124.541 53.1797V12.5458L75.3973 12.5458V53.1797Z" fill="#F8F4FF"/>
<path opacity="0.6" d="M75.3867 12.5576V53.1915H124.54V12.5576H75.3867ZM76.9914 14.1633H122.935V51.5676H76.9914V14.1633Z" fill="white"/>
<path d="M75.3973 53.1797L124.541 53.1797V12.5458L75.3973 12.5458V53.1797Z" fill="#FF981F"/>
<path opacity="0.6" d="M75.3867 12.5479V53.3489H124.634V12.5479H75.3867ZM123.05 51.7432H76.9947V14.1594H123.05V51.7432Z" fill="white"/>
<path d="M214.561 41.2012H102.762V133.635H214.561V41.2012Z" fill="#FF981F"/>
<path opacity="0.6" d="M102.762 41.2012V133.635H214.561V41.2012H102.762ZM210.914 129.986H106.409V44.8504H210.914V129.986Z" fill="white"/>
<path d="M134.817 79.2772L145.794 75.7749C146.426 75.5838 147.003 75.2426 147.474 74.7806C147.946 74.3185 148.298 73.7493 148.501 73.1218L151.852 62.1253C152.078 61.3926 152.504 60.737 153.082 60.2324C153.66 59.7278 154.368 59.3942 155.125 59.2693C155.883 59.1443 156.66 59.2329 157.369 59.5251C158.078 59.8173 158.691 60.3014 159.139 60.923L165.844 70.2443C166.229 70.7859 166.741 71.2248 167.336 71.5222C167.931 71.8197 168.59 71.9667 169.255 71.9504L180.778 71.7127C181.547 71.695 182.305 71.8925 182.967 72.2829C183.629 72.6733 184.168 73.2411 184.524 73.9219C184.879 74.6027 185.036 75.3695 184.977 76.1354C184.918 76.9012 184.645 77.6357 184.19 78.2555L177.365 87.5245C176.963 88.0577 176.701 88.682 176.601 89.3412C176.501 90.0004 176.567 90.6738 176.792 91.3009L180.546 102.146C180.792 102.869 180.832 103.647 180.661 104.392C180.489 105.136 180.114 105.819 179.576 106.364C179.038 106.908 178.359 107.292 177.615 107.473C176.872 107.655 176.092 107.626 175.365 107.389L164.436 103.787C163.816 103.585 163.157 103.534 162.513 103.639C161.869 103.745 161.26 104.004 160.736 104.394L151.548 111.329C150.937 111.808 150.204 112.106 149.432 112.187C148.66 112.269 147.881 112.132 147.185 111.791C146.488 111.45 145.903 110.92 145.495 110.261C145.088 109.602 144.875 108.842 144.881 108.067L144.954 96.5816C144.956 95.9177 144.798 95.2632 144.492 94.674C144.187 94.0848 143.743 93.5785 143.198 93.1981L133.719 86.644C133.068 86.2122 132.554 85.6041 132.236 84.8908C131.919 84.1776 131.812 83.3886 131.927 82.616C132.042 81.8435 132.375 81.1193 132.887 80.5281C133.398 79.9368 134.068 79.503 134.817 79.2772Z" fill="white"/>
<path d="M131.504 61.4233L133.849 61.3151C133.983 61.311 134.114 61.2748 134.232 61.2099C134.349 61.1449 134.448 61.053 134.521 60.9421L135.76 58.9873C135.843 58.8571 135.962 58.7523 136.102 58.6847C136.242 58.617 136.399 58.5892 136.555 58.6043C136.711 58.6194 136.859 58.6769 136.983 58.7703C137.107 58.8636 137.202 58.9892 137.258 59.1328L138.086 61.2853C138.133 61.4101 138.211 61.5217 138.313 61.6101C138.414 61.6986 138.536 61.7613 138.668 61.7926L140.948 62.3448C141.1 62.3812 141.239 62.4588 141.349 62.5688C141.459 62.6787 141.535 62.8166 141.569 62.9669C141.603 63.1171 141.593 63.2737 141.541 63.4189C141.49 63.5641 141.397 63.6921 141.275 63.7885L139.443 65.2285C139.336 65.3109 139.251 65.4181 139.197 65.5405C139.143 65.6629 139.12 65.7967 139.131 65.9298L139.299 68.2241C139.309 68.3769 139.276 68.5294 139.203 68.6648C139.13 68.8001 139.02 68.9128 138.886 68.9902C138.751 69.0677 138.597 69.1068 138.441 69.1033C138.285 69.0998 138.133 69.0537 138.003 68.9702L136.041 67.7055C135.93 67.6342 135.803 67.5901 135.671 67.5771C135.538 67.5641 135.405 67.5826 135.281 67.6309L133.107 68.4964C132.962 68.5575 132.802 68.5771 132.646 68.5529C132.49 68.5286 132.343 68.4616 132.224 68.3595C132.105 68.2574 132.018 68.1243 131.972 67.9756C131.927 67.8269 131.925 67.6687 131.967 67.519L132.587 65.2993C132.622 65.171 132.626 65.0361 132.596 64.9061C132.567 64.7762 132.507 64.6551 132.419 64.5532L130.899 62.7924C130.794 62.675 130.725 62.5306 130.7 62.3761C130.675 62.2215 130.695 62.0632 130.759 61.9196C130.822 61.776 130.926 61.6531 131.058 61.5653C131.19 61.4774 131.344 61.4281 131.504 61.4233Z" fill="white"/>
<path d="M169.109 117.178L170.164 116.022C170.226 115.957 170.271 115.878 170.296 115.793C170.322 115.707 170.326 115.618 170.309 115.532L169.99 114.044C169.969 113.945 169.976 113.84 170.011 113.743C170.046 113.645 170.107 113.558 170.188 113.492C170.268 113.426 170.365 113.382 170.466 113.367C170.568 113.351 170.671 113.365 170.763 113.405L172.148 114.009C172.228 114.045 172.316 114.059 172.405 114.053C172.494 114.046 172.58 114.017 172.657 113.969L173.987 113.149C174.075 113.094 174.177 113.064 174.279 113.063C174.382 113.062 174.481 113.09 174.567 113.144C174.652 113.197 174.72 113.274 174.763 113.366C174.805 113.457 174.821 113.56 174.808 113.662L174.61 115.192C174.597 115.281 174.607 115.37 174.638 115.452C174.669 115.535 174.72 115.607 174.787 115.663L175.925 116.645C176.001 116.711 176.056 116.797 176.084 116.894C176.112 116.991 176.112 117.095 176.085 117.194C176.057 117.294 176.003 117.384 175.927 117.456C175.852 117.528 175.759 117.579 175.659 117.602L174.15 117.942C174.065 117.962 173.985 118.001 173.916 118.058C173.848 118.114 173.794 118.186 173.758 118.266L173.133 119.692C173.092 119.789 173.026 119.873 172.941 119.936C172.856 119.998 172.757 120.036 172.653 120.045C172.55 120.054 172.447 120.034 172.357 119.987C172.267 119.939 172.193 119.867 172.144 119.778L171.41 118.459C171.368 118.383 171.307 118.319 171.233 118.273C171.159 118.227 171.075 118.199 170.987 118.193L169.457 118.096C169.353 118.092 169.253 118.058 169.17 117.998C169.087 117.938 169.024 117.855 168.987 117.759C168.951 117.663 168.943 117.557 168.964 117.454C168.986 117.351 169.036 117.256 169.109 117.178Z" fill="white"/>
<path d="M125.635 72.6635L126.464 73.0933C126.512 73.1187 126.564 73.1324 126.618 73.1334C126.671 73.1343 126.723 73.1224 126.771 73.0987L127.587 72.6715C127.641 72.6432 127.703 72.6306 127.765 72.6353C127.827 72.6399 127.886 72.6616 127.937 72.6978C127.987 72.734 128.027 72.7834 128.051 72.8403C128.076 72.8972 128.083 72.9595 128.074 73.02L127.931 73.9272C127.923 73.9796 127.927 74.0336 127.945 74.0843C127.962 74.135 127.992 74.1809 128.031 74.218L128.707 74.8626C128.753 74.9055 128.785 74.9599 128.801 75.0197C128.817 75.0794 128.816 75.1421 128.798 75.2007C128.779 75.2593 128.745 75.3114 128.698 75.3511C128.651 75.3908 128.594 75.4166 128.533 75.4254L127.615 75.557C127.562 75.5641 127.511 75.5842 127.468 75.6156C127.425 75.647 127.39 75.6886 127.368 75.7368L126.969 76.5611C126.942 76.6159 126.901 76.6619 126.849 76.694C126.796 76.7261 126.736 76.7431 126.674 76.743C126.613 76.7429 126.552 76.7257 126.499 76.6934C126.446 76.6612 126.402 76.615 126.374 76.5602L125.949 75.7335C125.925 75.6867 125.89 75.6462 125.847 75.6154C125.804 75.5845 125.754 75.5643 125.702 75.5564L124.781 75.4217C124.718 75.4138 124.659 75.3887 124.61 75.3492C124.561 75.3098 124.524 75.2576 124.503 75.1986C124.483 75.1397 124.479 75.0764 124.493 75.0161C124.507 74.9558 124.538 74.9008 124.582 74.8576L125.237 74.2157C125.275 74.1785 125.303 74.1327 125.319 74.0821C125.334 74.0315 125.337 73.9776 125.328 73.9251L125.154 73.0152C125.141 72.9537 125.146 72.8902 125.168 72.8319C125.19 72.7737 125.229 72.7232 125.279 72.6863C125.329 72.6494 125.39 72.6277 125.453 72.6237C125.516 72.6196 125.579 72.6335 125.635 72.6635Z" fill="white"/>
<path d="M99.1016 155.746L104.579 151.5C104.579 151.5 104.871 149.086 106.067 148.366C107.263 147.646 112.174 145.715 113.37 145.806C114.566 145.897 114.913 150.471 114.575 151.218C114.238 151.965 107.099 154.052 107.099 154.052L100.498 160.557L99.1016 155.746Z" fill="#FFB573"/>
<path d="M58.2754 170.836C66.4916 168.795 79.3454 166.59 84.3664 164.003C89.3874 161.415 97.4666 155.329 99.0186 154.982C99.0186 154.982 102.031 157.069 102.999 158.818C102.999 158.818 95.8599 168.094 85.4162 173.032C74.9725 177.97 61.1784 181.852 61.1784 181.852L58.2754 170.836Z" fill="#4764FF"/>
<path d="M102.999 158.806C102.999 158.806 95.8599 168.09 85.4162 173.029C81.8741 174.696 77.9395 176.263 74.2878 177.584C67.1945 180.163 61.1784 181.858 61.1784 181.858L59.6448 176.045L58.2754 170.842C66.4916 168.792 79.3454 166.596 84.3572 164.008C89.3691 161.421 97.4666 155.335 99.0186 154.988C99.0186 154.979 102.04 157.066 102.999 158.806Z" fill="#FFB7B7"/>
<path d="M99.0176 154.991L101.336 153.169L105.143 156.422L102.998 158.818L99.0176 154.991Z" fill="#FF4B4B"/>
<path opacity="0.2" d="M74.2857 177.578C67.1923 180.157 61.1763 181.851 61.1763 181.851L59.6426 176.038C64.5708 175.891 69.4965 176.409 74.2857 177.578Z" fill="black"/>
<path d="M60.7186 221.046L65.1097 234.376C78.6482 231.232 113.823 224.627 119.154 239.487C125.773 257.947 77.9179 272.671 51.4252 273.573C24.9325 274.475 10.9559 259.787 27.6895 221.255L60.7186 221.046Z" fill="#161351"/>
<path opacity="0.2" d="M60.7186 221.046L65.1097 234.376C78.6482 231.232 113.823 224.627 119.154 239.487C125.773 257.947 77.9179 272.671 51.4252 273.573C24.9325 274.475 10.9559 259.787 27.6895 221.255L60.7186 221.046Z" fill="black"/>
<path d="M111.488 265.582C111.459 265.604 111.424 265.616 111.387 265.616C111.351 265.616 111.316 265.604 111.287 265.582C111.267 265.557 111.256 265.527 111.256 265.495C111.256 265.464 111.267 265.433 111.287 265.409C111.378 265.117 112.255 262.575 113.113 262.311C113.207 262.288 113.305 262.29 113.398 262.317C113.491 262.344 113.576 262.396 113.642 262.466C113.763 262.568 113.855 262.7 113.91 262.848C113.964 262.997 113.979 263.157 113.953 263.313C113.811 263.79 113.516 264.206 113.113 264.498C112.612 264.917 112.067 265.28 111.488 265.582ZM111.716 265.099C112.54 264.734 113.207 264.088 113.597 263.277C113.621 263.169 113.614 263.056 113.575 262.952C113.536 262.849 113.467 262.759 113.377 262.694C113.353 262.663 113.32 262.64 113.283 262.629C113.245 262.617 113.205 262.618 113.167 262.63C113.093 262.655 113.024 262.695 112.967 262.748C112.409 263.449 111.985 264.245 111.716 265.099Z" fill="#161351"/>
<path d="M111.432 265.617C111.403 265.625 111.372 265.625 111.343 265.617C111.314 265.609 111.288 265.593 111.268 265.571C111.185 265.498 109.962 263.958 110.163 262.92C110.187 262.79 110.238 262.667 110.312 262.557C110.386 262.447 110.481 262.354 110.592 262.282C110.685 262.193 110.805 262.139 110.932 262.127C111.06 262.116 111.188 262.148 111.295 262.218C111.934 262.665 111.861 264.724 111.541 265.507V265.589C111.51 265.612 111.471 265.622 111.432 265.617ZM110.738 262.601C110.628 262.694 110.553 262.823 110.528 262.965C110.561 263.744 110.85 264.49 111.35 265.088C111.551 264.177 111.487 262.756 111.112 262.501C111.067 262.501 110.994 262.419 110.802 262.546L110.738 262.601Z" fill="#161351"/>
<path d="M64.9218 269.965C64.9373 269.934 64.9629 269.909 64.9943 269.894C65.0258 269.879 65.0613 269.875 65.0953 269.883C65.127 269.885 65.1572 269.897 65.1805 269.919C65.2038 269.941 65.2189 269.97 65.2231 270.001C65.287 270.302 65.7526 272.944 65.1044 273.646C65.0342 273.713 64.9468 273.76 64.8518 273.781C64.7567 273.801 64.6578 273.796 64.5658 273.764C64.4099 273.734 64.2647 273.663 64.1446 273.559C64.0245 273.455 63.9337 273.322 63.881 273.172C63.7736 272.686 63.8248 272.178 64.0271 271.723C64.2644 271.108 64.5642 270.519 64.9218 269.965ZM64.9218 270.502C64.3736 271.215 64.1013 272.102 64.1549 272.999C64.1862 273.105 64.2478 273.199 64.3322 273.27C64.4166 273.341 64.52 273.386 64.6297 273.4C64.6652 273.414 64.7042 273.417 64.7417 273.409C64.7791 273.401 64.8132 273.382 64.8396 273.354C64.8956 273.297 64.9391 273.229 64.9675 273.154C65.1298 272.262 65.1267 271.348 64.9583 270.457L64.9218 270.502Z" fill="#161351"/>
<path d="M82.2542 256.543L71.3632 260.415L66.123 262.274L67.465 267.987L72.5408 266.912L84.9199 264.278L82.2542 256.543Z" fill="#FFB573"/>
<path d="M68.8993 268.262L67.9864 261.519C67.9753 261.43 67.9462 261.344 67.9007 261.266C67.8552 261.188 67.7943 261.12 67.7217 261.066C67.6492 261.013 67.5664 260.974 67.4785 260.953C67.3906 260.933 67.2994 260.93 67.2104 260.945L63.8781 261.501C63.8781 261.501 59.3134 261.92 58.4004 263.087C55.7711 266.476 57.4144 281.446 59.1673 281.974C59.8155 282.166 60.4911 281.282 60.7741 280.681C61.687 278.749 63.2208 273.701 63.9785 272.107C64.8915 270.239 67.3108 269.319 68.4063 268.991C68.5633 268.95 68.7 268.853 68.7907 268.719C68.8815 268.585 68.9201 268.422 68.8993 268.262Z" fill="#FF4B4B"/>
<path d="M64.9503 269.864C64.9745 269.848 65.0031 269.839 65.0324 269.839C65.0617 269.839 65.0904 269.848 65.1146 269.864C65.2241 269.864 67.0409 270.648 67.3696 271.686C67.4114 271.812 67.4273 271.944 67.4163 272.076C67.4053 272.207 67.3677 272.335 67.3057 272.452C67.2686 272.575 67.1905 272.682 67.0842 272.755C66.978 272.828 66.8499 272.862 66.7214 272.853C65.9454 272.762 65.0142 270.921 64.8955 270.119V270.046C64.8812 270.014 64.8789 269.979 64.889 269.945C64.899 269.912 64.9208 269.883 64.9503 269.864ZM67.0226 272.169C67.073 272.034 67.073 271.885 67.0226 271.75C66.8127 271.112 65.7993 270.538 65.2789 270.292C65.5254 271.158 66.2832 272.388 66.7396 272.434C66.7396 272.434 66.8857 272.434 66.9861 272.242V272.169H67.0226Z" fill="#161351"/>
<path opacity="0.2" d="M82.2567 256.543L71.3652 260.415L72.5429 266.912L84.9225 264.278L82.2567 256.543Z" fill="black"/>
<path d="M74.4709 267.886L77.6023 268.114L75.5117 257.354L71.9512 259.312L74.4709 267.886Z" fill="#4764FF"/>
<path opacity="0.6" d="M74.4709 267.886L77.6023 268.114L75.5117 257.354L71.9512 259.312L74.4709 267.886Z" fill="white"/>
<path opacity="0.2" d="M29.0195 226.076L45.3332 244.135C45.3332 244.135 63.3815 243.734 85.2913 254.431C85.2913 254.431 108.808 244.736 110.971 236.682C113.135 228.627 61.6104 234.322 61.6104 234.322L29.0195 226.076Z" fill="black"/>
<path d="M25.6832 181.902C28.5954 190.631 28.7323 210.357 27.7007 221.254L60.7207 221.044C66.399 199.305 64.4818 184.053 63.998 178.959C63.3955 172.764 62.4369 172.527 62.4369 172.527C62.4369 172.527 55.6997 171.871 49.8388 171.916C45.3 172.086 40.7789 172.576 36.3094 173.383C32.9842 173.937 29.6926 174.677 26.45 175.597C26.1079 175.694 25.7892 175.86 25.5133 176.084C25.2374 176.308 25.0101 176.586 24.8453 176.9C24.6804 177.215 24.5815 177.56 24.5544 177.914C24.5274 178.268 24.5729 178.623 24.6881 178.959C25.035 179.934 25.3728 180.937 25.6832 181.902Z" fill="#4764FF"/>
<path d="M60.7207 221.045L40.8101 221.172L27.7007 221.254C28.561 211.103 28.4723 200.894 27.436 190.759C27.1386 187.757 26.5516 184.792 25.6832 181.903C25.3728 180.937 25.035 179.935 24.6881 178.914C24.5729 178.578 24.5274 178.223 24.5544 177.869C24.5815 177.515 24.6804 177.17 24.8453 176.855C25.0101 176.541 25.2374 176.263 25.5133 176.039C25.7892 175.815 26.1079 175.649 26.45 175.552C29.6935 174.647 32.9851 173.923 36.3094 173.384C40.78 172.592 45.301 172.117 49.8388 171.962C55.6997 171.917 62.4369 172.573 62.4369 172.573C62.4369 172.573 63.3955 172.81 63.998 179.005C64.4818 184.053 66.399 199.305 60.7207 221.045Z" fill="#FF4B4B"/>
<path opacity="0.2" d="M27.6983 221.256C28.5587 211.105 28.47 200.896 27.4336 190.761C31.4962 196.519 38.6446 208.136 40.8083 221.174L27.6983 221.256Z" fill="black"/>
<path d="M49.2109 233.054C49.2109 233.054 57.4271 238.412 58.3948 238.831C59.3625 239.25 65.4516 240.744 67.2044 240.653C68.9572 240.562 66.611 235.095 65.1047 234.385C63.5984 233.674 58.2122 234.649 58.2122 234.649L51.8219 229.856L49.2109 233.054Z" fill="#FFB573"/>
<path d="M105.575 238.832V241.511C105.575 242.194 104.763 242.477 104.078 242.477H50.49C49.7962 242.477 48.9746 242.194 48.9746 241.511V238.832H105.575Z" fill="#161351"/>
<path opacity="0.4" d="M105.575 238.832V241.511C105.575 242.194 104.763 242.477 104.078 242.477H50.49C49.7962 242.477 48.9746 242.194 48.9746 241.511V238.832H105.575Z" fill="white"/>
<path opacity="0.2" d="M105.573 238.832V241.511C105.573 242.194 104.76 242.477 104.076 242.477H68.7276C68.043 242.477 67.2305 242.194 67.2305 241.511V238.832H105.573Z" fill="black"/>
<path d="M114.538 211.04L108.147 239.923C108.031 240.386 107.765 240.798 107.39 241.094C107.015 241.391 106.553 241.555 106.075 241.563H71.2382C71.02 241.559 70.8056 241.504 70.6123 241.403C70.419 241.302 70.2519 241.157 70.1243 240.98C69.9968 240.803 69.9122 240.599 69.8774 240.384C69.8426 240.169 69.8584 239.949 69.9236 239.741L76.314 211.077C76.446 210.641 76.7235 210.263 77.1005 210.006C77.4775 209.749 77.9313 209.628 78.3863 209.664H113.241C114.154 209.674 114.748 210.093 114.538 211.04Z" fill="#161351"/>
<path opacity="0.4" d="M114.534 211.041L108.143 239.924C108.027 240.387 107.761 240.798 107.386 241.095C107.011 241.391 106.549 241.556 106.071 241.564H72.4121C72.1938 241.56 71.9795 241.505 71.7861 241.403C71.5928 241.302 71.4257 241.158 71.2982 240.981C71.1706 240.804 71.0861 240.6 71.0512 240.385C71.0164 240.17 71.0322 239.949 71.0975 239.741L77.4878 211.077C77.6183 210.64 77.8955 210.261 78.2729 210.004C78.6502 209.747 79.1048 209.627 79.5601 209.665H113.228C114.15 209.674 114.744 210.093 114.534 211.041Z" fill="white"/>
<path opacity="0.2" d="M97.3573 225.72C97.3573 228.189 94.7006 230.202 92.7469 230.202C90.7932 230.202 89.652 228.189 90.1997 225.72C90.7475 223.251 92.6921 221.319 94.6002 221.246C94.0433 223.715 95.2392 225.72 97.1747 225.72H97.3573Z" fill="black"/>
<path d="M89.8242 268.914L101.236 270.791L106.722 271.693L108.32 266.035L103.363 264.531L91.2575 260.859L89.8242 268.914Z" fill="#FFB573"/>
<path d="M107.194 265.114L104.729 271.492C104.692 271.578 104.672 271.671 104.672 271.764C104.672 271.858 104.691 271.951 104.729 272.036C104.767 272.122 104.822 272.199 104.891 272.262C104.961 272.325 105.042 272.374 105.131 272.403L108.317 273.533C108.317 273.533 112.498 275.356 113.849 274.772C117.793 273.078 123.618 259.183 122.339 257.871C121.865 257.397 120.842 257.871 120.304 258.235C118.597 259.493 114.826 263.156 113.338 264.185C111.658 265.388 109.084 265.014 107.961 264.768C107.813 264.732 107.657 264.747 107.518 264.81C107.379 264.873 107.265 264.98 107.194 265.114Z" fill="#FF4B4B"/>
<path opacity="0.2" d="M89.8242 268.914L101.236 270.791L103.363 264.531L91.2575 260.859L89.8242 268.914Z" fill="black"/>
<path d="M101.404 263.357C101.404 263.357 54.8457 237.244 38.8059 237.991C22.7661 238.738 20.4381 252.861 27.0567 261.681C33.6753 270.5 45.9175 272.696 45.9175 272.696C45.9175 272.696 37.5917 260.952 38.7968 257.644C40.0018 254.337 44.7124 258.956 44.7124 258.956C44.7124 258.956 73.9895 268.387 99.5966 270.555L101.404 263.357Z" fill="#161351"/>
<path d="M102.149 262.64L99.5107 260.872L96.1328 271.25H100.195L102.149 262.64Z" fill="#4764FF"/>
<path opacity="0.6" d="M102.149 262.64L99.5107 260.872L96.1328 271.25H100.195L102.149 262.64Z" fill="white"/>
<path d="M33.3999 174.542C31.7202 176.938 52.3702 180.793 52.3702 180.793C52.3702 180.793 64.4571 172.966 50.3435 171.745C47.4679 171.49 36.0565 170.779 33.3999 174.542Z" fill="#E4897B"/>
<path d="M53.0438 185.227C53.0438 185.227 64.1721 176.061 58.4117 170.576C52.6512 165.091 25.5469 162.64 27.8383 175.131C27.8383 175.131 31.3256 174.102 34.8495 177.455C42.2714 184.543 53.0438 185.227 53.0438 185.227Z" fill="#99333C"/>
<path opacity="0.2" d="M52.1097 182.597C52.1097 182.597 58.4087 177.713 56.1904 173.312C53.972 168.912 40.8626 164.092 31.4688 170.16C33.7212 171.312 35.8141 172.752 37.6948 174.442C41.4195 177.622 52.1097 182.597 52.1097 182.597Z" fill="black"/>
<path d="M37.6973 174.444C37.6973 174.444 40.719 178.754 52.1121 182.599C52.1121 182.599 57.1879 176.157 49.4738 173.214C49.4738 173.214 47.8671 172.713 47.5202 170.162C47.3571 168.362 47.5908 166.549 48.2049 164.85C48.287 164.576 48.3874 164.285 48.4879 163.993L39.1031 158.135C39.1031 158.135 42.4079 170.007 37.6973 174.444Z" fill="#FFB573"/>
<path opacity="0.2" d="M41.209 161.539C41.209 161.539 41.7111 168.236 47.5175 170.167C47.3544 168.368 47.5881 166.555 48.2022 164.856C44.7786 163.042 41.209 161.539 41.209 161.539Z" fill="black"/>
<path d="M34.7062 164.064C33.8556 164.136 33 164.009 32.2074 163.692C31.4149 163.376 30.7074 162.879 30.1414 162.241C30.0996 162.199 30.0762 162.142 30.0762 162.082C30.0762 162.022 30.0996 161.965 30.1414 161.923C30.1619 161.901 30.1867 161.883 30.2141 161.872C30.2416 161.86 30.2712 161.854 30.3012 161.854C30.3311 161.854 30.3608 161.86 30.3882 161.872C30.4157 161.883 30.4405 161.901 30.4609 161.923C33.0263 165.257 40.2934 162.424 40.3664 162.396C40.3946 162.385 40.4248 162.378 40.4553 162.379C40.4858 162.379 40.516 162.385 40.5441 162.397C40.5722 162.409 40.5976 162.426 40.6188 162.448C40.64 162.47 40.6567 162.495 40.6677 162.524C40.6794 162.551 40.6854 162.581 40.6852 162.611C40.6851 162.64 40.6788 162.67 40.6669 162.697C40.6549 162.724 40.6375 162.749 40.6156 162.769C40.5938 162.79 40.568 162.805 40.5399 162.815C38.6788 163.554 36.7069 163.976 34.7062 164.064Z" fill="#161351"/>
<path d="M53.5067 142.789C53.4534 142.787 53.4021 142.768 53.3607 142.735C53.3189 142.692 53.2954 142.635 53.2954 142.575C53.2954 142.516 53.3189 142.458 53.3607 142.416C54.213 141.334 54.6383 139.978 54.5558 138.604C54.4734 137.231 53.889 135.935 52.9133 134.963C49.4441 131.273 44.2677 134.407 44.2129 134.434C44.1879 134.456 44.1586 134.471 44.1269 134.48C44.0952 134.49 44.0619 134.492 44.0293 134.487C43.9967 134.482 43.9656 134.47 43.9382 134.451C43.9107 134.433 43.8875 134.409 43.8701 134.381C43.8528 134.353 43.8417 134.322 43.8377 134.289C43.8336 134.257 43.8367 134.224 43.8467 134.192C43.8568 134.161 43.8735 134.132 43.8957 134.108C43.9179 134.084 43.9452 134.064 43.9756 134.052C44.0303 134.052 49.5263 130.689 53.2511 134.653C54.2859 135.713 54.9027 137.111 54.9882 138.589C55.0737 140.067 54.6223 141.526 53.7167 142.698C53.6912 142.729 53.659 142.753 53.6225 142.769C53.5861 142.784 53.5464 142.791 53.5067 142.789Z" fill="#151515"/>
<path d="M53.1334 143.065C53.0957 143.064 53.0587 143.055 53.0254 143.038C52.9921 143.02 52.9633 142.995 52.9416 142.964C52.91 142.914 52.899 142.854 52.9109 142.797C52.9229 142.739 52.9568 142.688 53.0055 142.655C53.0055 142.655 55.3883 141.033 55.6531 138.873C55.7027 138.321 55.6284 137.765 55.4358 137.245C55.2431 136.725 54.9369 136.254 54.5393 135.867C54.5172 135.845 54.4996 135.82 54.4876 135.792C54.4756 135.764 54.4695 135.733 54.4695 135.703C54.4695 135.672 54.4756 135.642 54.4876 135.614C54.4996 135.585 54.5172 135.56 54.5393 135.539C54.5835 135.496 54.6424 135.473 54.7036 135.473C54.7649 135.473 54.8238 135.496 54.868 135.539C55.3107 135.974 55.6509 136.503 55.864 137.086C56.0771 137.669 56.1579 138.292 56.1004 138.91C55.8083 141.279 53.3616 142.937 53.252 143.01C53.2193 143.04 53.1777 143.059 53.1334 143.065Z" fill="#151515"/>
<path d="M53.2433 141.925C53.5082 139.617 52.9211 137.292 51.5919 135.385C50.2626 133.478 48.2824 132.12 46.0221 131.566C37.6508 129.042 29.0146 137.342 29.0146 137.342C29.0146 137.342 22.5147 164.093 40.5082 162.653C58.5016 161.214 53.2433 141.925 53.2433 141.925Z" fill="#151515"/>
<path d="M43.7311 139.116C51.4726 138.396 54.3574 142.295 55.6719 150.213C57.3152 160.108 55.7724 167.388 45.8855 166.167C32.411 164.509 30.8134 140.318 43.7311 139.116Z" fill="#FFB573"/>
<path d="M36.4317 152.941C36.4317 152.941 39.4626 146.253 38.4493 141.397C38.4493 141.397 53.2201 133.707 55.4385 149.187C55.4385 149.187 55.6394 135.238 42.2926 136.176C28.9459 137.115 30.8265 156.549 38.2484 161.688C38.2575 161.706 34.6059 157.132 36.4317 152.941Z" fill="#151515"/>
<path d="M37.8622 154.46C37.6956 153.577 37.1874 152.796 36.4476 152.284C35.7077 151.772 34.7958 151.572 33.9091 151.727C31.5355 152.21 30.8508 157.239 36.931 157.859C37.8074 157.895 38.2548 157.048 37.8622 154.46Z" fill="#FFB573"/>
<path d="M32.4742 136.13C32.4742 136.13 36.199 130.217 29.8723 127.866C23.5455 125.515 17.4197 133.652 21.2084 139.273C22.2391 140.853 23.7568 142.054 25.5322 142.697C27.3076 143.34 29.2444 143.388 31.05 142.836L32.4742 136.13Z" fill="#151515"/>
<path d="M32.8891 135.555C32.8363 135.56 32.7838 135.543 32.743 135.509C32.7212 135.489 32.7038 135.464 32.6919 135.437C32.68 135.409 32.6738 135.38 32.6738 135.35C32.6738 135.32 32.68 135.291 32.6919 135.263C32.7038 135.236 32.7212 135.211 32.743 135.191C32.9073 134.999 36.5774 130.462 33.1903 127.628C33.1485 127.586 33.1251 127.528 33.1251 127.469C33.1251 127.409 33.1485 127.352 33.1903 127.309C33.2108 127.287 33.2356 127.27 33.2631 127.258C33.2905 127.246 33.3202 127.24 33.3501 127.24C33.38 127.24 33.4097 127.246 33.4371 127.258C33.4646 127.27 33.4894 127.287 33.5099 127.309C37.253 130.425 33.1629 135.455 33.1264 135.509C33.0951 135.538 33.0563 135.558 33.0143 135.566C32.9723 135.574 32.9289 135.57 32.8891 135.555Z" fill="#151515"/>
<path d="M26.1033 144.337C25.1171 144.298 24.1512 144.045 23.2728 143.596C22.3943 143.147 21.6243 142.513 21.0163 141.737C20.4082 140.961 19.9766 140.062 19.7515 139.103C19.5264 138.144 19.5132 137.148 19.7127 136.183C20.1052 134.188 21.3377 132.885 23.0175 132.702C23.0477 132.697 23.0787 132.698 23.1084 132.706C23.1381 132.713 23.1659 132.727 23.1899 132.746C23.214 132.765 23.2339 132.789 23.2482 132.816C23.2625 132.843 23.271 132.872 23.2732 132.903C23.2783 132.962 23.2602 133.021 23.2227 133.066C23.1852 133.112 23.1313 133.142 23.0723 133.149C21.5933 133.313 20.5069 134.479 20.16 136.274C19.9 137.568 20.0484 138.91 20.5847 140.116C21.121 141.322 22.0188 142.332 23.1545 143.007C27.3084 145.23 28.833 142.561 28.8878 142.451C28.9021 142.425 28.9215 142.402 28.9449 142.383C28.9683 142.364 28.9952 142.35 29.024 142.342C29.0529 142.333 29.0831 142.33 29.113 142.334C29.1429 142.337 29.1718 142.346 29.1982 142.36C29.2243 142.374 29.2475 142.392 29.2663 142.415C29.2851 142.437 29.2991 142.463 29.3077 142.491C29.3162 142.519 29.319 142.549 29.3158 142.578C29.3127 142.607 29.3038 142.635 29.2895 142.661C28.9489 143.191 28.4763 143.625 27.9179 143.919C27.3595 144.212 26.7343 144.357 26.1033 144.337Z" fill="#151515"/>
<path opacity="0.2" d="M49.7227 183.218C49.7245 183.343 49.6889 183.466 49.6203 183.571C49.5518 183.676 49.4535 183.758 49.3381 183.806C49.2226 183.855 49.0952 183.868 48.9722 183.844C48.8491 183.82 48.736 183.76 48.6474 183.672C48.5587 183.583 48.4986 183.471 48.4746 183.348C48.4505 183.225 48.4638 183.098 48.5126 182.983C48.5614 182.867 48.6435 182.769 48.7485 182.701C48.8535 182.632 48.9765 182.597 49.1019 182.599C49.2658 182.601 49.4223 182.667 49.5383 182.783C49.6542 182.898 49.7203 183.055 49.7227 183.218Z" fill="black"/>
<path opacity="0.2" d="M55.9983 181.411C55.9995 181.493 55.9844 181.575 55.9537 181.651C55.923 181.727 55.8775 181.797 55.8197 181.855C55.762 181.914 55.6931 181.96 55.6172 181.992C55.5413 182.024 55.4598 182.04 55.3775 182.04C55.289 182.051 55.1993 182.042 55.1142 182.016C55.0292 181.989 54.9507 181.945 54.884 181.886C54.8173 181.827 54.7639 181.755 54.7273 181.674C54.6908 181.593 54.6719 181.505 54.6719 181.416C54.6719 181.327 54.6908 181.239 54.7273 181.158C54.7639 181.077 54.8173 181.004 54.884 180.945C54.9507 180.886 55.0292 180.842 55.1142 180.816C55.1993 180.789 55.289 180.781 55.3775 180.792C55.5422 180.792 55.7001 180.857 55.8165 180.973C55.9329 181.089 55.9983 181.247 55.9983 181.411Z" fill="black"/>
<path d="M61.8516 187.696C61.8534 187.82 61.818 187.943 61.7499 188.047C61.6818 188.152 61.5841 188.234 61.4691 188.283C61.3542 188.332 61.2273 188.346 61.1045 188.323C60.9817 188.299 60.8686 188.24 60.7796 188.153C60.6905 188.065 60.6296 187.953 60.6046 187.831C60.5795 187.709 60.5915 187.582 60.6389 187.466C60.6863 187.351 60.767 187.252 60.8708 187.183C60.9745 187.113 61.0967 187.076 61.2217 187.076C61.3872 187.076 61.546 187.141 61.6639 187.257C61.7818 187.373 61.8492 187.531 61.8516 187.696Z" fill="#161351"/>
<path d="M48.2963 190.905C48.2963 191.027 48.2599 191.147 48.1917 191.249C48.1235 191.351 48.0265 191.43 47.9131 191.477C47.7996 191.524 47.6748 191.536 47.5544 191.512C47.434 191.489 47.3233 191.429 47.2365 191.343C47.1497 191.256 47.0906 191.146 47.0666 191.026C47.0427 190.905 47.055 190.781 47.1019 190.668C47.1489 190.554 47.2285 190.458 47.3306 190.39C47.4327 190.322 47.5527 190.285 47.6755 190.285C47.8401 190.285 47.998 190.35 48.1145 190.467C48.2309 190.583 48.2963 190.74 48.2963 190.905Z" fill="#161351"/>
<path d="M61.0787 187.962C61.0787 187.962 58.6412 187.634 58.2212 184.527C58.1975 183.805 57.8924 183.119 57.3708 182.618C56.8492 182.116 56.1521 181.837 55.4276 181.839C55.2998 181.839 55.1902 181.748 55.1902 181.621C55.1877 181.59 55.1915 181.56 55.2013 181.531C55.2112 181.503 55.227 181.476 55.2476 181.454C55.2682 181.432 55.2932 181.414 55.321 181.402C55.3489 181.39 55.3789 181.384 55.4093 181.384C56.2448 181.385 57.0483 181.704 57.6558 182.276C58.2633 182.849 58.6288 183.631 58.6777 184.463C59.0429 187.197 61.1152 187.507 61.1335 187.516C61.1925 187.523 61.2464 187.552 61.2839 187.598C61.3214 187.644 61.3395 187.703 61.3344 187.762C61.3253 187.821 61.2938 187.875 61.2463 187.912C61.1988 187.95 61.1389 187.967 61.0787 187.962Z" fill="#161351"/>
<path d="M47.6765 190.909C47.6175 190.909 47.5608 190.886 47.5182 190.845C47.4757 190.805 47.4506 190.749 47.4482 190.69C47.3986 189.091 47.9862 187.538 49.0824 186.371C49.295 186.185 49.467 185.957 49.5879 185.701C49.7088 185.446 49.776 185.169 49.7854 184.886C49.7384 184.314 49.4931 183.776 49.0915 183.365C49.0649 183.346 49.0427 183.321 49.0263 183.293C49.0099 183.265 48.9998 183.234 48.9966 183.201C48.9934 183.169 48.9972 183.136 49.0078 183.105C49.0183 183.074 49.0354 183.046 49.0578 183.023C49.0802 182.999 49.1075 182.98 49.1377 182.968C49.1679 182.956 49.2005 182.95 49.2331 182.951C49.2657 182.953 49.2976 182.961 49.3268 182.976C49.3559 182.99 49.3815 183.011 49.4019 183.037C49.8966 183.521 50.1955 184.169 50.2418 184.859C50.2347 185.203 50.1573 185.542 50.0145 185.855C49.8717 186.169 49.6663 186.45 49.4111 186.681C48.4116 187.757 47.8713 189.178 47.9047 190.645C47.9074 190.704 47.8872 190.763 47.8483 190.809C47.8093 190.854 47.7544 190.884 47.6947 190.891L47.6765 190.909Z" fill="#161351"/>
<path d="M25.0347 176.572C31.5803 171.323 29.0972 200.853 32.1828 207.55C35.2685 214.247 53.6728 230.173 53.6728 230.173L49.7198 234.601C49.7198 234.601 27.2623 222.237 24.1584 213.946C20.1142 203.45 20.1963 180.435 25.0347 176.572Z" fill="#4764FF"/>
<path d="M25.0347 176.572C31.5803 171.323 29.0972 200.853 32.1828 207.55C35.2685 214.247 53.6728 230.173 53.6728 230.173L49.7198 234.601C49.7198 234.601 27.2623 222.237 24.1584 213.946C20.1142 203.45 20.1963 180.435 25.0347 176.572Z" fill="#FFB7B7"/>
<path d="M53.6757 230.211L56.1955 232.334L52.7354 236.543L49.7227 234.639L53.6757 230.211Z" fill="#FF4B4B"/>
</svg>
