<svg width="652" height="600" viewBox="0 0 652 600" fill="none" xmlns="http://www.w3.org/2000/svg">
<path d="M324.367 599.899C503.51 599.899 648.734 591.43 648.734 580.982C648.734 570.535 503.51 562.065 324.367 562.065C145.224 562.065 0 570.535 0 580.982C0 591.43 145.224 599.899 324.367 599.899Z" fill="#F5F5F5"/>
<path d="M414.706 346.86L405.17 431.886H468.909L476.437 346.86H414.706Z" fill="#3C4043"/>
<path d="M497.768 364.104H398.128C397.39 364.105 396.659 363.956 395.981 363.667C395.302 363.377 394.689 362.953 394.18 362.421C393.67 361.888 393.273 361.257 393.015 360.567C392.756 359.877 392.64 359.142 392.674 358.405L398.696 232.906C398.761 231.509 399.362 230.192 400.375 229.227C401.388 228.262 402.734 227.724 404.133 227.726H504.309L497.768 364.104Z" fill="#FF4B4B"/>
<path opacity="0.2" d="M496.033 227.726L489.492 364.104H497.773L504.314 227.726H496.033Z" fill="white"/>
<path opacity="0.1" d="M486.895 233.558L480.956 357.687C480.917 358.514 481.047 359.341 481.337 360.117C481.628 360.893 482.072 361.603 482.645 362.202C483.217 362.802 483.905 363.28 484.667 363.607C485.429 363.933 486.249 364.103 487.079 364.104H489.488L496.029 227.726H493.034C491.458 227.728 489.943 228.334 488.8 229.419C487.658 230.504 486.976 231.985 486.895 233.558Z" fill="black"/>
<path d="M396.711 434.923L397.497 460.942L401.044 578.637H412.754L416.284 460.942L417.071 434.923H396.711Z" fill="#505659"/>
<path opacity="0.2" d="M396.711 434.923L397.497 461.66H416.284L417.071 434.923H396.711Z" fill="black"/>
<path d="M333.104 578.221L343.927 436.763H361.61L346.47 578.221H333.104Z" fill="#505659"/>
<path opacity="0.2" d="M361.609 436.593L360.238 449.962H342.939L343.926 436.593H361.609Z" fill="black"/>
<path d="M467.321 578.221L452.164 436.763H469.847L480.671 578.221H467.321Z" fill="#505659"/>
<path opacity="0.4" d="M396.711 434.923L397.497 460.942L401.044 578.637H412.754L416.284 460.942L417.071 434.923H396.711Z" fill="#3C4043"/>
<path opacity="0.5" d="M346.503 578.22H333.119L342.939 449.462L343.926 436.595H361.609L360.238 449.462L346.503 578.22Z" fill="#3C4043"/>
<path opacity="0.5" d="M467.288 578.22L453.537 449.462L452.182 436.595H469.865L470.835 449.462L480.655 578.22H467.288Z" fill="#3C4043"/>
<path opacity="0.2" d="M452.182 436.593L453.537 449.962H470.835L469.865 436.593H452.182Z" fill="black"/>
<path d="M479.369 441.646H334.492V430.466C334.492 428.25 335.374 426.125 336.942 424.558C338.511 422.991 340.639 422.11 342.857 422.11H471.004C473.223 422.11 475.35 422.991 476.919 424.558C478.488 426.125 479.369 428.25 479.369 430.466V441.646Z" fill="#FF4B4B"/>
<path d="M330.862 441.661H482.899C484.756 441.661 486.262 440.157 486.262 438.302V435.261C486.262 433.406 484.756 431.902 482.899 431.902H330.862C329.005 431.902 327.499 433.406 327.499 435.261V438.302C327.499 440.157 329.005 441.661 330.862 441.661Z" fill="#798086"/>
<path opacity="0.6" d="M330.862 441.661H482.899C484.756 441.661 486.262 440.157 486.262 438.302V435.261C486.262 433.406 484.756 431.902 482.899 431.902H330.862C329.005 431.902 327.499 433.406 327.499 435.261V438.302C327.499 440.157 329.005 441.661 330.862 441.661Z" fill="#3C4043"/>
<path opacity="0.1" d="M456.078 422.127H431.57L383.138 420.155L383.908 423.364L346.434 423.665L344.51 424.199L346.434 441.646H389.813L386.685 425.921C403.481 425.82 446.158 429.697 456.078 422.127Z" fill="black"/>
<path d="M357.192 287.647C357.192 287.647 309.698 297.674 307.004 298.109C304.311 298.543 291.613 294.766 289.171 295.117C286.728 295.468 282.73 306.915 282.479 309.472C282.228 312.029 302.404 313.917 304.227 313.215C306.188 312.165 308.042 310.928 309.765 309.522L359.434 304.292L357.192 287.647Z" fill="#B67343"/>
<path d="M449.927 222.896L423.544 224.216L417.605 231.184L451.198 230.449L449.927 222.896Z" fill="#8B54FF"/>
<path d="M398.712 265.743C398.712 265.743 398.243 267.013 397.39 269.085C396.537 271.157 395.232 274.316 393.643 277.758C389.795 286.114 384.208 296.742 378.369 302.474C376.903 304.015 375.138 305.243 373.183 306.083C366.959 308.473 351.652 309.593 337.716 309.426C323.781 309.258 311.568 310.562 311.568 310.562V295.789L357.39 285.161C357.39 285.161 381.548 241.93 395.868 235.479L398.712 265.743Z" fill="#263238"/>
<path opacity="0.2" d="M397.392 269.098C396.522 271.27 395.234 274.328 393.644 277.771C389.797 286.126 384.209 296.755 378.37 302.486C372.431 280.628 394.397 259.823 394.397 259.823L397.392 269.098Z" fill="black"/>
<path d="M391.472 568.68L378.156 566.842L376.299 535.208L389.615 537.046L391.472 568.68Z" fill="#B67343"/>
<path opacity="0.2" d="M389.615 537.045L376.299 535.224L377.369 553.305L390.653 554.475L389.615 537.045Z" fill="black"/>
<path d="M390.934 382.653L394.197 362.299L468.91 357.837C468.91 357.837 476.857 400.183 470.75 411.462C459.843 431.599 401.123 421.489 383.941 423.411C394.213 465.372 393.21 547.373 393.21 547.373L368.668 549.245C368.668 549.245 349.78 460.894 345.966 418.899C343.389 390.574 366.877 391.276 390.934 382.653Z" fill="#282828"/>
<path d="M360.738 556.862L347.321 557.832L338.906 527.267L352.307 526.298L360.738 556.862Z" fill="#B67343"/>
<path d="M345.497 558.307H345.279C345.279 558.106 344.61 554.363 342.971 553.461C342.762 553.361 342.533 553.31 342.302 553.31C342.07 553.31 341.841 553.361 341.632 553.461C341.377 553.54 341.156 553.704 341.007 553.926C340.858 554.148 340.789 554.414 340.813 554.681C341.141 555.791 341.845 556.753 342.803 557.404C341.577 556.987 340.242 557.023 339.039 557.505C338.883 557.625 338.759 557.783 338.68 557.965C338.601 558.146 338.569 558.344 338.588 558.541C338.562 558.857 338.626 559.175 338.775 559.456C338.923 559.737 339.148 559.971 339.424 560.128C340.262 560.463 341.196 560.463 342.034 560.128C343.2 559.791 344.322 559.32 345.38 558.725C345.397 558.737 345.417 558.743 345.438 558.743C345.459 558.743 345.48 558.737 345.497 558.725C345.497 558.725 345.497 558.725 345.497 558.624C345.525 558.608 345.548 558.585 345.564 558.557C345.58 558.529 345.588 558.498 345.588 558.466C345.588 558.433 345.58 558.402 345.564 558.374C345.548 558.346 345.525 558.323 345.497 558.307ZM341.465 554.564C341.465 554.38 341.465 554.146 341.917 553.962H342.067C342.188 553.929 342.314 553.921 342.437 553.938C342.561 553.955 342.68 553.998 342.787 554.062C343.757 554.58 344.46 556.602 344.744 557.839L344.443 557.755C343.121 556.97 341.582 555.516 341.465 554.564ZM339.709 559.46C339.543 559.351 339.409 559.202 339.318 559.026C339.227 558.851 339.183 558.655 339.19 558.457C339.18 558.358 339.196 558.258 339.238 558.167C339.279 558.076 339.343 557.997 339.424 557.939C340.177 557.371 342.636 557.856 344.443 558.39C342.218 559.493 340.495 559.894 339.709 559.46Z" fill="#6E29FF"/>
<path opacity="0.2" d="M352.307 526.298L338.906 527.284L343.724 544.764L356.957 543.143L352.307 526.298Z" fill="black"/>
<path d="M334.406 542.608L358.028 535.673C358.028 535.673 343.925 456.162 329.588 428.589C330.659 428.238 332.081 427.787 333.837 427.269C336.999 426.317 341.198 425.13 346.133 423.76C380.462 414.251 450.04 396.421 450.04 396.421L418.254 366.792C418.254 366.792 291.646 386.076 289.019 419.398C287.764 435.424 334.406 542.608 334.406 542.608Z" fill="#282828"/>
<path opacity="0.2" d="M333.842 427.27C337.004 426.317 341.504 425.047 346.439 423.677C345.452 415.589 345.135 406.398 349.032 401.669C356.778 392.244 376.703 386.712 388.046 384.707C397.531 383.036 429.401 379.694 429.401 379.694C429.401 379.694 388.046 375.733 345.754 388.049C324.875 394.165 328.94 414.57 333.842 427.27Z" fill="black"/>
<path d="M473.06 379.11C478.079 375.283 473.244 339.689 475.804 304.662C479.702 251.371 475.804 234.242 471.873 232.588C464.62 231.322 457.284 230.596 449.924 230.416C439.146 230.017 428.354 230.246 417.602 231.101C410.25 232.015 402.979 233.496 395.854 235.529C395.854 235.529 378.255 291.494 389.497 372.141L473.06 379.11Z" fill="#263238"/>
<path opacity="0.1" d="M473.06 379.11C478.079 375.283 473.244 339.689 475.804 304.662C479.702 251.371 475.804 234.242 471.873 232.588C464.62 231.322 457.284 230.596 449.924 230.416C439.146 230.017 428.354 230.246 417.602 231.101C410.25 232.015 402.979 233.496 395.854 235.529C395.854 235.529 378.255 291.494 389.497 372.141L473.06 379.11Z" fill="white"/>
<path d="M445.941 194.218C444.118 204.645 442.495 223.713 449.923 230.497C446.912 233.722 443.293 236.319 439.274 238.141C435.254 239.962 430.913 240.971 426.502 241.109C413.118 241.694 417.618 231.182 417.618 231.182C429.162 228.174 428.676 219.585 426.485 211.547L445.941 194.218Z" fill="#B67343"/>
<path opacity="0.2" d="M438.009 201.239L426.416 211.55C426.948 213.42 427.323 215.332 427.537 217.265C431.953 216.53 441.456 207.105 441.841 202.459C442.125 200.588 438.461 203.128 438.009 201.239Z" fill="black"/>
<path d="M420.646 167.229C426.418 171.14 423.791 177.774 410.742 188.135C405.439 181.267 404.553 167.948 408.768 164.589C412.984 161.23 415.611 163.854 420.646 167.229Z" fill="#263238"/>
<path d="M445.453 177.975C444.818 192.062 445.169 200.317 438.193 207.67C427.67 218.699 410.188 212.566 406.574 198.579C403.362 186.013 404.901 165.157 418.603 159.258C421.614 157.961 424.907 157.454 428.17 157.785C431.433 158.115 434.557 159.273 437.246 161.147C439.935 163.022 442.101 165.552 443.537 168.496C444.974 171.441 445.633 174.704 445.453 177.975Z" fill="#B67343"/>
<path d="M439.636 165.612C433.078 167.968 434.015 175.053 444.119 188.288C450.945 182.924 455.077 170.19 451.798 165.929C448.519 161.668 445.341 163.556 439.636 165.612Z" fill="#263238"/>
<path d="M452.348 189.122C451.893 190.819 451.108 192.41 450.037 193.803C448.966 195.197 447.631 196.366 446.108 197.244C442.009 199.55 438.847 196.158 439.048 191.713C439.215 187.719 441.574 181.686 446.125 181.201C450.675 180.717 453.469 184.911 452.348 189.122Z" fill="#B67343"/>
<path d="M425.33 163.37C425.33 163.37 427.421 177.474 441.022 178.41C454.623 179.346 454.188 171.158 454.188 171.158C455.193 169.054 455.714 166.753 455.714 164.423C455.714 162.093 455.193 159.792 454.188 157.689C451.06 151.506 434.398 153.427 426.485 151.923C392.842 143.016 393.026 153.177 399.818 166.963C399.818 166.963 397.61 172.227 405.773 176.188C405.773 176.171 407.329 161.883 425.33 163.37Z" fill="#263238"/>
<path d="M402.193 296.661C402.193 296.661 353.678 295.558 350.934 295.274C348.191 294.989 336.714 288.589 334.205 288.255C331.695 287.921 325.204 298.282 324.401 300.688C323.598 303.094 342.804 309.595 344.644 309.328C346.794 308.755 348.884 307.977 350.884 307.005L400.42 313.372L402.193 296.661Z" fill="#B67343"/>
<path opacity="0.2" d="M477.262 277.237C470.052 288.935 459.964 301.385 449.909 300.8C439.387 300.181 449.909 278.725 461.302 260.042C461.723 260.895 462.097 261.771 462.423 262.665C464.983 269.818 472.795 260.994 476.777 249.497C477.455 258.728 477.617 267.989 477.262 277.237Z" fill="black"/>
<path d="M345.998 556.481L360.519 552.437C360.638 552.395 360.764 552.378 360.889 552.386C361.015 552.393 361.137 552.426 361.249 552.483C361.362 552.539 361.462 552.617 361.543 552.712C361.625 552.808 361.686 552.919 361.724 553.038L365.639 564.335C365.722 564.637 365.745 564.952 365.706 565.263C365.667 565.573 365.567 565.873 365.412 566.145C365.256 566.417 365.048 566.655 364.8 566.847C364.552 567.038 364.268 567.178 363.966 567.259C358.947 568.58 356.371 568.931 349.963 570.702C346.032 571.788 338.386 574.295 332.782 574.93C327.178 575.565 326.693 570.017 329.018 569.248C334.489 567.427 341.063 561.711 343.907 557.834C344.431 557.16 345.168 556.683 345.998 556.481Z" fill="#263238"/>
<path d="M376.817 566.873C376.817 566.639 376.6 562.845 375.144 561.626C374.712 561.32 374.178 561.194 373.655 561.275C373.382 561.304 373.126 561.418 372.921 561.601C372.717 561.784 372.576 562.026 372.518 562.294C372.564 563.447 373.034 564.542 373.839 565.369C372.717 564.705 371.394 564.462 370.109 564.684C369.924 564.766 369.764 564.896 369.647 565.061C369.529 565.225 369.458 565.418 369.439 565.619C369.359 565.916 369.361 566.228 369.447 566.523C369.533 566.818 369.698 567.083 369.925 567.291C370.688 567.763 371.598 567.941 372.484 567.792C373.67 567.676 374.842 567.441 375.981 567.09H376.232C376.232 567.09 376.232 567.09 376.232 566.99C376.232 566.889 376.566 566.99 376.566 566.856H376.851L376.817 566.873ZM373.12 562.411C373.12 562.227 373.237 562.01 373.689 561.926H373.839C373.963 561.918 374.088 561.934 374.206 561.974C374.324 562.015 374.432 562.078 374.525 562.16C375.325 563.378 375.723 564.816 375.663 566.271L375.378 566.121C374.21 565.19 373.41 563.875 373.12 562.411ZM370.376 566.839C370.234 566.701 370.133 566.527 370.083 566.336C370.033 566.144 370.036 565.943 370.092 565.753C370.099 565.654 370.133 565.559 370.188 565.477C370.244 565.395 370.32 565.329 370.41 565.285C371.263 564.901 373.572 565.87 375.194 566.773C372.886 567.391 371.045 567.424 370.376 566.839Z" fill="#407BFF"/>
<path d="M377.148 565.235L392.204 564.3C392.329 564.286 392.455 564.297 392.575 564.333C392.695 564.368 392.807 564.428 392.903 564.507C393 564.586 393.08 564.684 393.138 564.795C393.196 564.906 393.231 565.027 393.242 565.152L394.731 577.017C394.768 577.638 394.559 578.249 394.149 578.718C393.739 579.187 393.161 579.476 392.539 579.523C387.269 579.774 384.743 579.624 378.118 579.975C374.053 580.225 366.04 581.094 360.435 580.543C354.831 579.991 355.5 574.477 357.926 574.209C363.681 573.558 371.309 569.346 374.89 566.138C375.52 565.593 376.315 565.276 377.148 565.235Z" fill="#263238"/>
<path d="M471.869 232.585C463.873 236.537 457.299 242.865 453.048 250.7C445.386 264.202 432.086 292.811 426.482 294.232C420.878 295.652 354.144 292.778 354.144 292.778L351.518 309.94C351.518 309.94 426.081 322.457 439.615 315.538C453.149 308.62 496.679 241.509 471.869 232.585Z" fill="#263238"/>
<path opacity="0.3" d="M417.601 231.182C408.065 237.766 404.719 264.069 404.719 264.069C403.046 275.098 403.397 278.49 410.407 279.861C427.906 283.871 435.836 275.165 437.341 266.325C437.341 266.325 442.695 237.264 451.21 230.446L427.304 241.141L417.601 231.182Z" fill="white"/>
<path d="M417.601 231.182C408.065 237.766 404.719 264.069 404.719 264.069C403.046 275.098 403.397 278.49 410.407 279.861C427.906 283.871 435.836 275.165 437.341 266.325C437.341 266.325 442.695 237.264 451.21 230.446L427.304 241.141L417.601 231.182Z" fill="#E2D4FF"/>
<path d="M427.303 241.144L431.569 229.296L449.921 222.896L451.192 230.449L427.303 241.144Z" fill="#A87FFF"/>
<path d="M431.57 229.296L436.706 241.144L451.194 230.449L449.922 222.896L431.57 229.296Z" fill="#E2D4FF"/>
<path d="M427.309 241.146L422.39 229.264L423.544 224.218L417.605 231.186L427.309 241.146Z" fill="#A87FFF"/>
<path d="M422.39 229.264L417.221 242.266L417.605 231.186L423.544 224.218L422.39 229.264Z" fill="#E2D4FF"/>
<path d="M122.675 244.667L118.994 245.454L125.499 275.816L129.18 275.029L122.675 244.667Z" fill="#407BFF"/>
<path opacity="0.3" d="M122.675 244.667L118.994 245.454L125.499 275.816L129.18 275.029L122.675 244.667Z" fill="#281551"/>
<path d="M135.194 241.696H131.43V272.745H135.194V241.696Z" fill="#C930FF"/>
<path d="M152.321 248.851L148.738 247.696L139.195 277.246L142.777 278.4L152.321 248.851Z" fill="#008B76"/>
<path d="M121.941 272.765H148.34V308.075C148.34 308.771 148.203 309.459 147.937 310.102C147.67 310.745 147.28 311.329 146.787 311.821C146.295 312.313 145.71 312.703 145.067 312.969C144.423 313.235 143.734 313.372 143.037 313.372H127.295C125.888 313.372 124.539 312.814 123.545 311.821C122.55 310.827 121.992 309.48 121.992 308.075V272.765H121.941Z" fill="#FF981F"/>
<path d="M203.518 355.497H182.689V580.978H203.518V355.497Z" fill="#665C2F"/>
<path opacity="0.4" d="M203.532 355.38H192.725V580.861H203.532V355.38Z" fill="black"/>
<path d="M552.36 355.38H541.553V580.861H552.36V355.38Z" fill="#665C2F"/>
<path d="M80.9205 355.38H70.1133V580.861H80.9205V355.38Z" fill="#665C2F"/>
<path d="M563.45 580.794H552.643V355.43H380.497V580.794H360.74V355.43H70.8355V580.794H60.9316V313.368H563.45V580.794Z" fill="#665C2F"/>
<path opacity="0.1" d="M563.45 580.797H552.643V355.433H380.497V580.797H369.807V326.489H563.45V580.797Z" fill="white"/>
<path opacity="0.3" d="M563.45 313.368H369.807V326.486H563.45V313.368Z" fill="black"/>
<path opacity="0.1" d="M369.924 313.368H60.9316V326.486H369.924V313.368Z" fill="black"/>
<path opacity="0.4" d="M369.941 580.797L360.439 580.563L360.74 355.433H70.8355V580.797H60.9316V326.489H369.941V580.797Z" fill="white"/>
<path opacity="0.4" d="M80.9205 355.38H70.1133V580.861H80.9205V355.38Z" fill="black"/>
<path opacity="0.4" d="M552.36 355.38H541.553V580.861H552.36V355.38Z" fill="black"/>
<path d="M228.133 306.685V311.096C228.133 312.433 230.425 313.369 231.73 313.369H335.117C336.439 313.369 338.547 312.433 338.547 311.096V306.685H228.133Z" fill="#263238"/>
<path opacity="0.6" d="M228.133 306.685V311.096C228.133 312.433 230.425 313.369 231.73 313.369H335.117C336.439 313.369 338.547 312.433 338.547 311.096V306.685H228.133Z" fill="white"/>
<path opacity="0.2" d="M228.133 306.685V311.096C228.133 312.433 230.425 313.369 231.73 313.369H299.919C301.24 313.369 303.415 312.433 303.415 311.096V306.685H228.133Z" fill="black"/>
<path d="M211.574 252.393L223.871 308.342C224.089 309.254 224.595 310.072 225.316 310.674C226.036 311.276 226.931 311.63 227.869 311.684H295.088C295.519 311.645 295.936 311.511 296.309 311.292C296.682 311.072 297.001 310.772 297.243 310.413C297.485 310.054 297.644 309.646 297.708 309.219C297.772 308.791 297.74 308.354 297.614 307.941L285.334 252.594C285.084 251.748 284.55 251.014 283.822 250.515C283.094 250.016 282.216 249.782 281.336 249.853H214.101C212.277 249.87 211.173 250.572 211.574 252.393Z" fill="#263238"/>
<path opacity="0.6" d="M211.574 252.393L223.871 308.342C224.089 309.254 224.595 310.072 225.316 310.674C226.036 311.276 226.931 311.63 227.869 311.684H295.088C295.519 311.645 295.936 311.511 296.309 311.292C296.682 311.072 297.001 310.772 297.243 310.413C297.485 310.054 297.644 309.646 297.708 309.219C297.772 308.791 297.74 308.354 297.614 307.941L285.334 252.594C285.084 251.748 284.55 251.014 283.822 250.515C283.094 250.016 282.216 249.782 281.336 249.853H214.101C212.277 249.87 211.173 250.572 211.574 252.393Z" fill="white"/>
<path opacity="0.4" d="M211.574 252.393L223.871 308.342C224.089 309.254 224.595 310.072 225.316 310.674C226.036 311.276 226.931 311.63 227.869 311.684H292.813C293.244 311.645 293.661 311.511 294.035 311.291C294.408 311.071 294.728 310.772 294.971 310.413C295.214 310.055 295.375 309.648 295.441 309.22C295.508 308.793 295.478 308.356 295.355 307.941L283.043 252.594C282.792 251.748 282.258 251.014 281.53 250.515C280.802 250.016 279.924 249.782 279.044 249.853H214.101C212.277 249.87 211.173 250.572 211.574 252.393Z" fill="white"/>
<path opacity="0.2" d="M251.103 288.254C247.975 288.254 244.763 284.912 243.943 280.768C243.124 276.624 245.014 273.265 248.159 273.265C248.732 273.277 249.298 273.39 249.832 273.599C250.122 275.077 250.756 276.465 251.683 277.653C252.611 278.84 253.805 279.793 255.169 280.434C255.176 280.545 255.176 280.657 255.169 280.768C256.139 284.895 254.249 288.254 251.103 288.254Z" fill="black"/>
<path d="M362.175 206.696L313.775 162.902C324.438 141.972 326.708 117.771 320.119 95.2327C313.531 72.6948 298.582 53.5187 278.32 41.6159C258.059 29.7131 234.012 25.9801 211.084 31.1786C188.157 36.377 168.076 50.1151 154.937 69.5907C141.799 89.0664 136.593 112.812 140.381 135.985C144.169 159.158 156.666 180.012 175.323 194.293C193.979 208.575 217.39 215.208 240.781 212.84C264.171 210.471 285.778 199.28 301.195 181.549L362.175 206.696Z" fill="#E2D4FF"/>
<path d="M295.142 37.3779H164.82V205.415H295.142V37.3779Z" fill="#6E29FF"/>
<path opacity="0.4" d="M295.142 46.3291H164.82V205.416H295.142V46.3291Z" fill="white"/>
<path d="M231.979 56.9678H185.092C184.262 56.9644 183.439 57.1248 182.671 57.4397C181.903 57.7546 181.205 58.2179 180.617 58.8029C180.029 59.388 179.562 60.0833 179.244 60.849C178.926 61.6146 178.762 62.4356 178.762 63.2647V72.5538C178.762 74.2308 179.429 75.839 180.616 77.0248C181.803 78.2106 183.413 78.8767 185.092 78.8767H186.759C186.174 80.6483 185.123 82.2302 183.716 83.4569C182.309 84.6837 180.598 85.5103 178.762 85.8501C184.779 85.5899 188.712 83.2481 190.614 78.8767H231.953C232.787 78.8801 233.613 78.7191 234.384 78.4029C235.155 78.0867 235.855 77.6215 236.446 77.034C237.037 76.4465 237.505 75.7484 237.825 74.9795C238.145 74.2107 238.309 73.3864 238.309 72.5538V63.2647C238.309 62.4356 238.145 61.6146 237.827 60.849C237.508 60.0833 237.042 59.388 236.454 58.8029C235.866 58.2179 235.167 57.7546 234.4 57.4397C233.632 57.1248 232.809 56.9644 231.979 56.9678Z" fill="white"/>
<path d="M233.095 116.062H184.097C182.715 116.062 181.39 116.61 180.413 117.586C179.436 118.562 178.887 119.885 178.887 121.266V125.897C178.887 127.277 179.436 128.601 180.413 129.577C181.39 130.553 182.715 131.101 184.097 131.101H186.91C186.392 132.981 185.356 134.679 183.919 135.999C182.482 137.319 180.702 138.21 178.783 138.569C185.009 138.283 188.994 135.785 190.818 131.101H233.095C234.489 131.102 235.828 130.557 236.825 129.585C237.823 128.613 238.401 127.289 238.435 125.897V121.396C238.435 119.981 237.872 118.624 236.871 117.624C235.869 116.624 234.511 116.062 233.095 116.062Z" fill="white"/>
<path d="M275.79 143.64H247.865C246.433 143.64 245.059 144.206 244.043 145.216C243.028 146.225 242.454 147.595 242.447 149.026V151.628C242.454 153.059 243.028 154.429 244.043 155.438C245.059 156.447 246.433 157.014 247.865 157.014H267.48C269.304 161.698 273.289 164.221 279.515 164.508C277.597 164.142 275.821 163.246 274.389 161.921C272.956 160.596 271.925 158.896 271.413 157.014H275.79C277.22 157.014 278.591 156.446 279.602 155.436C280.614 154.426 281.182 153.056 281.182 151.628V149.026C281.182 147.597 280.614 146.227 279.602 145.217C278.591 144.207 277.22 143.64 275.79 143.64Z" fill="white"/>
<path d="M275.872 82.8564H209.057C207.663 82.856 206.324 83.4001 205.326 84.3725C204.328 85.3449 203.751 86.6684 203.717 88.0605V100.368C203.751 101.76 204.328 103.084 205.326 104.056C206.324 105.028 207.663 105.572 209.057 105.572H267.302C269.021 110.568 273.085 113.378 279.519 113.534C277.523 113.151 275.682 112.193 274.224 110.778C272.766 109.364 271.754 107.554 271.313 105.572H275.872C277.254 105.572 278.579 105.024 279.556 104.048C280.533 103.072 281.082 101.748 281.082 100.368V88.1645C281.095 87.4724 280.971 86.7845 280.715 86.1411C280.46 85.4976 280.078 84.9116 279.593 84.4173C279.108 83.923 278.529 83.5303 277.89 83.2623C277.251 82.9943 276.565 82.8563 275.872 82.8564Z" fill="white"/>
<path d="M281.365 184.704H178.603C176.013 184.704 173.914 186.801 173.914 189.388V191.521C173.914 194.108 176.013 196.205 178.603 196.205H281.365C283.955 196.205 286.054 194.108 286.054 191.521V189.388C286.054 186.801 283.955 184.704 281.365 184.704Z" fill="white"/>
<path d="M481.404 205.543L507.045 153.185C491.187 139.379 481.209 120.069 479.148 99.1924C477.086 78.3156 483.096 57.4453 495.952 40.8383C508.807 24.2313 527.539 13.1387 548.328 9.82316C569.116 6.50762 590.394 11.2189 607.823 22.996C625.251 34.7731 637.516 52.7287 642.116 73.2006C646.716 93.6724 643.305 115.118 632.578 133.163C621.851 151.209 604.617 164.494 584.39 170.31C564.163 176.125 542.468 174.033 523.73 164.46L481.404 205.543Z" fill="#FFD6A5"/>
<path d="M603.04 57.3119C604.316 48.9287 598.485 41.1086 590.017 39.8452C581.549 38.5819 573.649 44.3537 572.373 52.7369C571.097 61.1201 576.927 68.9402 585.396 70.2035C593.864 71.4669 601.763 65.6951 603.04 57.3119Z" fill="#2C197D"/>
<path d="M599.774 59.2664C598.638 62.4331 596.279 65.0237 593.214 66.4682C590.15 67.9128 586.631 68.0929 583.432 66.9691C580.233 65.8453 577.616 63.5095 576.157 60.4757C574.698 57.4418 574.516 53.9584 575.651 50.7917C576.786 47.625 579.146 45.0344 582.21 43.5899C583.728 42.8746 585.373 42.4622 587.051 42.3763C588.73 42.2903 590.409 42.5325 591.993 43.089C593.577 43.6454 595.034 44.5053 596.283 45.6194C597.531 46.7336 598.545 48.0802 599.268 49.5824C599.99 51.0846 600.407 52.713 600.493 54.3746C600.58 56.0362 600.336 57.6984 599.774 59.2664Z" fill="white"/>
<path d="M596.27 64.4395C594.557 65.9724 592.458 67.0182 590.194 67.466C587.93 67.9138 585.586 67.747 583.41 66.9832C581.234 66.2195 579.307 64.8872 577.834 63.1275C576.361 61.3679 575.396 59.2465 575.041 56.9881C578.927 56.0111 583.019 56.1977 586.798 57.5242C590.577 58.8506 593.873 61.2573 596.27 64.4395Z" fill="#421EA8"/>
<path d="M594.548 52.8322C594.17 53.8833 593.486 54.8 592.582 55.4663C591.678 56.1327 590.595 56.5188 589.47 56.5759C588.344 56.633 587.227 56.3585 586.259 55.7871C585.291 55.2157 584.516 54.3731 584.032 53.3657C583.547 52.3583 583.376 51.2315 583.538 50.1275C583.701 49.0235 584.19 47.992 584.945 47.1633C585.699 46.3346 586.685 45.746 587.777 45.4719C588.87 45.1977 590.02 45.2503 591.082 45.623C591.788 45.8702 592.439 46.2529 592.995 46.7493C593.552 47.2456 594.004 47.8459 594.326 48.5156C594.648 49.1853 594.833 49.9113 594.871 50.652C594.909 51.3928 594.8 52.1337 594.548 52.8322Z" fill="#421EA8"/>
<path d="M530.6 71.3518C537.826 71.3306 543.666 65.5146 543.645 58.3614C543.624 51.2083 537.749 45.4267 530.523 45.4479C523.297 45.4691 517.457 51.2851 517.478 58.4383C517.5 65.5915 523.375 71.373 530.6 71.3518Z" fill="#421EA8"/>
<path d="M540.683 54.6826C541.679 57.3404 541.567 60.2809 540.373 62.8573C539.179 65.4336 536.999 67.4347 534.315 68.4204C531.63 69.4061 528.66 69.2956 526.057 68.1133C523.455 66.9309 521.433 64.7735 520.437 62.1157C519.442 59.4579 519.553 56.5174 520.748 53.9411C521.942 51.3647 524.121 49.3636 526.806 48.3779C529.491 47.3922 532.461 47.5027 535.064 48.6851C537.666 49.8674 539.688 52.0248 540.683 54.6826Z" fill="white"/>
<path d="M541.249 59.8994C540.975 61.8051 540.185 63.6019 538.965 65.1004C537.744 66.5988 536.138 67.7432 534.315 68.4128C532.492 69.0824 530.52 69.2522 528.607 68.9045C526.695 68.5568 524.913 67.7043 523.449 66.4371C525.432 63.7286 528.181 61.6623 531.349 60.4987C534.517 59.3352 537.962 59.1267 541.249 59.8994Z" fill="#5824D4"/>
<path d="M533.787 53.3159C534.117 54.1987 534.176 55.1586 533.955 56.0742C533.734 56.9897 533.244 57.82 532.547 58.46C531.849 59.0999 530.976 59.5209 530.037 59.6696C529.098 59.8183 528.136 59.6881 527.272 59.2954C526.407 58.9028 525.68 58.2653 525.182 57.4636C524.684 56.6619 524.437 55.7319 524.472 54.7913C524.508 53.8506 524.824 52.9414 525.381 52.1787C525.939 51.416 526.712 50.834 527.603 50.5063C528.195 50.2878 528.826 50.1872 529.457 50.2103C530.089 50.2333 530.71 50.3795 531.284 50.6405C531.859 50.9015 532.375 51.2722 532.805 51.7313C533.235 52.1904 533.568 52.7289 533.787 53.3159Z" fill="#5824D4"/>
<path d="M565.588 48.5425C571.418 42.7707 571.418 33.4129 565.588 27.6411C559.758 21.8694 550.305 21.8694 544.475 27.6411C538.644 33.4129 538.644 42.7707 544.475 48.5425C550.305 54.3142 559.758 54.3142 565.588 48.5425Z" fill="#5824D4"/>
<path d="M567.232 36.449C567.561 38.8407 567.166 41.2752 566.097 43.4445C565.028 45.6138 563.333 47.4203 561.226 48.6353C559.119 49.8504 556.696 50.4194 554.262 50.2703C551.828 50.1212 549.494 49.2607 547.555 47.7978C545.616 46.3348 544.158 44.3352 543.367 42.0519C542.577 39.7687 542.488 37.3045 543.112 34.9713C543.737 32.638 545.046 30.5407 546.875 28.9446C548.704 27.3485 550.971 26.3256 553.387 26.0052C554.991 25.7816 556.623 25.8752 558.189 26.2804C559.755 26.6855 561.225 27.3943 562.512 28.3657C563.8 29.3371 564.88 30.5517 565.691 31.9392C566.501 33.3267 567.025 34.8596 567.232 36.449Z" fill="white"/>
<path d="M566.55 42.4094C565.765 44.464 564.434 46.2705 562.698 47.638C560.961 49.0055 558.884 49.8833 556.685 50.1786C554.487 50.474 552.248 50.1758 550.206 49.3157C548.165 48.4556 546.395 47.0655 545.086 45.2922C547.976 42.7669 551.557 41.1455 555.377 40.6324C559.197 40.1194 563.085 40.7377 566.55 42.4094Z" fill="#8B54FF"/>
<path d="M558.824 37.2445C560.659 34.8571 560.192 31.4489 557.78 29.6322C555.368 27.8155 551.926 28.2781 550.09 30.6655C548.255 33.0529 548.723 36.461 551.134 38.2778C553.546 40.0945 556.989 39.6319 558.824 37.2445Z" fill="#8B54FF"/>
<path d="M604.501 74.4375H517.477L545.776 134.789H576.197L604.501 74.4375Z" fill="#FF981F"/>
<path d="M527.247 97.995L526.828 98.1875L529.711 104.335L530.13 104.143L527.247 97.995Z" fill="#FF981F"/>
<path d="M530.978 105.968L530.559 106.16L531.908 109.037L532.327 108.844L530.978 105.968Z" fill="#FF981F"/>
<path opacity="0.3" d="M604.501 74.4375H517.477L545.776 134.789H576.197L604.501 74.4375Z" fill="black" fill-opacity="0.25"/>
<path opacity="0.2" d="M542.878 74.4375H526.412L551.351 134.789H556.677L542.878 74.4375Z" fill="black" fill-opacity="0.25"/>
<path d="M607.202 62.832H514.778C513.562 62.832 512.576 63.8077 512.576 65.0113V72.2616C512.576 73.4652 513.562 74.4409 514.778 74.4409H607.202C608.417 74.4409 609.403 73.4652 609.403 72.2616V65.0113C609.403 63.8077 608.417 62.832 607.202 62.832Z" fill="#FF981F"/>
<path d="M571.73 156.679H550.247C549.476 156.679 548.734 156.39 548.169 155.871C547.604 155.351 547.258 154.64 547.201 153.879L545.775 134.791H576.197L574.757 153.879C574.702 154.637 574.359 155.347 573.798 155.866C573.236 156.385 572.498 156.675 571.73 156.679Z" fill="#FF981F"/>
<path opacity="0.2" d="M571.73 156.679H550.247C549.476 156.679 548.734 156.39 548.169 155.871C547.604 155.351 547.258 154.64 547.201 153.879L545.775 134.791H576.197L574.757 153.879C574.702 154.637 574.359 155.347 573.798 155.866C573.236 156.385 572.498 156.675 571.73 156.679Z" fill="black" fill-opacity="0.25"/>
</svg>
